<svg width="119" height="23" viewBox="0 0 119 23" fill="none" xmlns="http://www.w3.org/2000/svg">
<path d="M51.9805 4.65918V6.17673H48.9617V16H47.1015V6.17673H44.0664V4.65918H51.9805ZM61.9417 11.2842C61.9417 11.6214 61.92 11.926 61.8765 12.198H55.0067C55.0611 12.9159 55.3276 13.4925 55.8063 13.9276C56.2849 14.3628 56.8724 14.5804 57.5686 14.5804C58.5694 14.5804 59.2765 14.1615 59.6899 13.3239H61.697C61.425 14.1507 60.93 14.8306 60.212 15.3636C59.5049 15.8858 58.6238 16.1469 57.5686 16.1469C56.7092 16.1469 55.9368 15.9565 55.2515 15.5757C54.577 15.1841 54.0439 14.6402 53.6523 13.944C53.2716 13.2369 53.0812 12.421 53.0812 11.4963C53.0812 10.5716 53.2661 9.76119 53.636 9.06497C54.0168 8.35787 54.5444 7.81394 55.2188 7.43319C55.9042 7.05245 56.6874 6.86207 57.5686 6.86207C58.4171 6.86207 59.1732 7.04701 59.8367 7.41688C60.5003 7.78675 61.0171 8.30891 61.3869 8.98338C61.7568 9.64697 61.9417 10.4139 61.9417 11.2842ZM59.9999 10.6967C59.989 10.0114 59.7443 9.46203 59.2656 9.04865C58.787 8.63527 58.1941 8.42858 57.487 8.42858C56.8452 8.42858 56.2958 8.63527 55.8389 9.04865C55.382 9.45115 55.11 10.0005 55.023 10.6967H59.9999ZM62.9891 11.4963C62.9891 10.5716 63.1741 9.76119 63.5439 9.06497C63.9247 8.35787 64.4468 7.81394 65.1104 7.43319C65.774 7.05245 66.5355 6.86207 67.3949 6.86207C68.4828 6.86207 69.3802 7.12316 70.0873 7.64532C70.8053 8.15661 71.2894 8.89091 71.5396 9.84822H69.5325C69.3694 9.4022 69.1083 9.05409 68.7493 8.80388C68.3903 8.55368 67.9388 8.42858 67.3949 8.42858C66.6334 8.42858 66.0242 8.70054 65.5673 9.24446C65.1213 9.77751 64.8983 10.5281 64.8983 11.4963C64.8983 12.4645 65.1213 13.2205 65.5673 13.7645C66.0242 14.3084 66.6334 14.5804 67.3949 14.5804C68.4719 14.5804 69.1844 14.1071 69.5325 13.1607H71.5396C71.2785 14.0745 70.789 14.8034 70.071 15.3473C69.353 15.8803 68.461 16.1469 67.3949 16.1469C66.5355 16.1469 65.774 15.9565 65.1104 15.5757C64.4468 15.1841 63.9247 14.6402 63.5439 13.944C63.1741 13.2369 62.9891 12.421 62.9891 11.4963ZM77.8808 6.86207C78.5662 6.86207 79.1754 7.00893 79.7084 7.30265C80.2523 7.59637 80.6766 8.03151 80.9812 8.60807C81.2967 9.18463 81.4544 9.88085 81.4544 10.6967V16H79.6105V10.9741C79.6105 10.1691 79.4093 9.5545 79.0068 9.13024C78.6042 8.6951 78.0549 8.47753 77.3587 8.47753C76.6624 8.47753 76.1076 8.6951 75.6943 9.13024C75.2918 9.5545 75.0905 10.1691 75.0905 10.9741V16H73.2303V3.92488H75.0905V8.05327C75.406 7.67252 75.803 7.3788 76.2817 7.17211C76.7712 6.96542 77.3043 6.86207 77.8808 6.86207ZM92.9815 16H91.1213L85.5243 7.5311V16H83.6641V4.64286H85.5243L91.1213 13.0954V4.64286H92.9815V16ZM103.502 11.2842C103.502 11.6214 103.48 11.926 103.436 12.198H96.5665C96.6209 12.9159 96.8875 13.4925 97.3661 13.9276C97.8448 14.3628 98.4322 14.5804 99.1284 14.5804C100.129 14.5804 100.836 14.1615 101.25 13.3239H103.257C102.985 14.1507 102.49 14.8306 101.772 15.3636C101.065 15.8858 100.184 16.1469 99.1284 16.1469C98.269 16.1469 97.4966 15.9565 96.8113 15.5757C96.1368 15.1841 95.6038 14.6402 95.2122 13.944C94.8314 13.2369 94.641 12.421 94.641 11.4963C94.641 10.5716 94.826 9.76119 95.1958 9.06497C95.5766 8.35787 96.1042 7.81394 96.7787 7.43319C97.464 7.05245 98.2473 6.86207 99.1284 6.86207C99.9769 6.86207 100.733 7.04701 101.397 7.41688C102.06 7.78675 102.577 8.30891 102.947 8.98338C103.317 9.64697 103.502 10.4139 103.502 11.2842ZM101.56 10.6967C101.549 10.0114 101.304 9.46203 100.825 9.04865C100.347 8.63527 99.7539 8.42858 99.0468 8.42858C98.405 8.42858 97.8556 8.63527 97.3987 9.04865C96.9418 9.45115 96.6699 10.0005 96.5829 10.6967H101.56ZM108.433 16.1469C107.725 16.1469 107.089 16.0218 106.523 15.7716C105.969 15.5105 105.528 15.1624 105.202 14.7272C104.875 14.2812 104.701 13.7862 104.68 13.2423H106.605C106.638 13.6231 106.817 13.944 107.143 14.2051C107.481 14.4553 107.9 14.5804 108.4 14.5804C108.922 14.5804 109.325 14.4825 109.607 14.2866C109.901 14.0799 110.048 13.8189 110.048 13.5034C110.048 13.1662 109.885 12.9159 109.559 12.7528C109.243 12.5896 108.737 12.4101 108.041 12.2143C107.366 12.0294 106.817 11.8499 106.393 11.6758C105.969 11.5017 105.599 11.2352 105.283 10.8762C104.979 10.5172 104.826 10.044 104.826 9.45659C104.826 8.97794 104.968 8.5428 105.251 8.15117C105.533 7.74867 105.936 7.43319 106.458 7.20475C106.991 6.9763 107.6 6.86207 108.286 6.86207C109.308 6.86207 110.13 7.12316 110.75 7.64532C111.381 8.15661 111.718 8.85828 111.761 9.75031H109.901C109.869 9.34781 109.705 9.02689 109.412 8.78757C109.118 8.54824 108.721 8.42858 108.22 8.42858C107.731 8.42858 107.356 8.52104 107.095 8.70598C106.833 8.89091 106.703 9.13568 106.703 9.44027C106.703 9.6796 106.79 9.88085 106.964 10.044C107.138 10.2072 107.35 10.3377 107.6 10.4357C107.851 10.5227 108.22 10.6369 108.71 10.7783C109.363 10.9524 109.896 11.1319 110.309 11.3168C110.733 11.4909 111.098 11.752 111.402 12.1001C111.707 12.4482 111.865 12.9105 111.876 13.4871C111.876 13.9984 111.734 14.4553 111.451 14.8578C111.169 15.2603 110.766 15.5757 110.244 15.8042C109.733 16.0326 109.129 16.1469 108.433 16.1469ZM115.893 8.52648V13.5034C115.893 13.8406 115.969 14.0854 116.121 14.2377C116.284 14.3791 116.556 14.4498 116.937 14.4498H118.079V16H116.611C115.773 16 115.131 15.8042 114.685 15.4126C114.239 15.0209 114.016 14.3845 114.016 13.5034V8.52648H112.956V7.00893H114.016V4.77341H115.893V7.00893H118.079V8.52648H115.893Z" fill="black"/>
<path d="M12.6555 18.336C12.9586 19.7773 13.3729 20.9102 13.9775 22.2369L13.7034 22.2074C9.92026 21.792 6.10957 20.701 3.54647 17.657C1.01526 14.6504 0.261377 10.3262 0.000933901 6.48916C-0.0127733 6.28613 0.125818 6.10636 0.323805 6.0707C4.8761 5.26791 9.89274 6.11255 13.2372 9.59655L13.3072 9.66939C12.6128 11.5137 12.2716 13.4386 12.3158 15.4144L12.3279 15.9243C11.1522 14.2706 10.1013 12.9471 8.59967 11.5537C7.59603 10.6222 6.39132 9.68145 5.13944 9.12972C4.89119 9.01968 4.59879 9.13747 4.49063 9.39164C4.3825 9.64581 4.49825 9.94337 4.74802 10.0519C6.05172 10.6269 7.36758 11.7257 8.38034 12.7269C10.0039 14.331 11.4918 16.2946 12.6387 18.2894L12.6555 18.336ZM35.1441 0.432384C33.6409 0.151866 32.1118 0 30.5844 0C24.9693 0 19.3721 2.08451 15.982 6.79602C12.8538 11.1433 12.5294 16.5256 14.686 21.3986L14.8489 21.7659L14.9754 21.3846C16.0567 18.1331 18.0548 14.812 20.1366 12.126C22.1988 9.46493 25.3163 6.20082 28.4248 4.83241C28.6731 4.72238 28.9655 4.84016 29.0736 5.09434C29.1817 5.34851 29.066 5.64452 28.8162 5.75458C27.4212 6.36986 26.084 7.37104 24.9418 8.38308C21.1587 11.7338 17.1472 17.4172 15.7093 22.3453L15.6438 22.5685C20.8449 22.1144 26.2424 20.9009 30.0118 16.9536C34.005 12.7722 35.1061 6.46298 35.464 0.847706C35.4762 0.64623 35.3405 0.46804 35.1441 0.432384Z" fill="#3CC079"/>
</svg>
